<?xml version="1.0" encoding="utf-8"?>
<!-- Generator: Adobe Illustrator 26.5.0, SVG Export Plug-In . SVG Version: 6.00 Build 0)  -->
<svg version="1.1" id="Capa_1" xmlns="http://www.w3.org/2000/svg" xmlns:xlink="http://www.w3.org/1999/xlink" x="0px" y="0px"
	 viewBox="0 0 515.53 272.01" style="enable-background:new 0 0 515.53 272.01;" xml:space="preserve">
<style type="text/css">
	.st0{fill:#0F0F20;}
	.st1{fill:#97D1D2;}
	.st2{fill:#DA5096;}
	.st3{fill:#E14992;}
	.st4{fill:#100F21;}
	.st5{fill:#CE5097;}
	.st6{fill:#D94B94;}
	.st7{fill:#9BD3D4;}
	.st8{fill:#DC4591;}
	.st9{fill:#100E1E;}
	.st10{fill:#1D1D1B;}
	.st11{fill:#FFFFFF;}
	.st12{fill:#150E1E;}
	.st13{fill:#ABD9D7;}
	.st14{fill:#9DD3D1;}
	.st15{fill:#E34390;}
	.st16{fill:#C8E6E9;}
	.st17{fill:#E24691;}
</style>
<path class="st0" d="M51.35,23.79C55.46,5.99,65.23-2.93,90.16,1.07c35.32,6.89,36.32,17.05,35.74,28.09L51.35,23.79z"/>
<path class="st1" d="M57.83,24.2C61.22,9.49,69.29,2.11,89.9,5.42c29.19,5.7,30.02,14.1,29.55,23.22L57.83,24.2z"/>
<path class="st0" d="M461.95,23.67c-4.11-17.8-13.87-26.72-38.81-22.72C387.82,7.84,386.82,18,387.39,29.03L461.95,23.67z"/>
<path class="st2" d="M455.48,24.08C452.08,9.37,444.01,1.99,423.4,5.3c-29.19,5.7-30.02,14.1-29.55,23.22L455.48,24.08z"/>
<rect x="203.95" y="168.34" class="st3" width="31.91" height="3.32"/>
<path class="st4" d="M162.89,90.72V80.26h-31.15V69.79h22.21V51.66h-13.79V40.17H115.3l10.61-11.02c-1.57-3.63-4.51-6.01-8.97-6.99
	C56.46,9.21,0,26.48,0,122.38c1.86,60.66,16.23,106.13,43.37,136.11c5.02,5.55,11.46,9.74,18.75,11.44
	c11.15,2.6,22.27-0.61,33.38-11.73l-18.04-0.17l0.17-3.4l13.96-0.17l0.34-12.21h9.57v-6.64h-3.95l0.63-6.89h11.24v-11.11h-7.28
	v-12.77h12v-10H62.64l0.17-3.91h51.32v-5.36h-12.04l0.79-8.68h40.1v-7.53h-12.77v-12.51h23.74v-9.19h8.94v-24.26h-16.08v-10.98
	h16.08V99.66h-8.94v-8.94H162.89z"/>
<path class="st4" d="M398.6,22.16c-5.53,1.51-8.74,4.03-11.2,6.87l12.96,12.5h-31.34l-7.66,3.57v3.57h39.64l0.34,3.74h-34.37v8.51
	h-19.91v8h-4.26v10.21h20.43v13.28h21.11v5.62h-13.79v3.91h9.7v3.4h-9.7v4.08h-30.3v15.49h2.55v2.98h1.36v4.68h14.81v6.3h-2.89
	v-2.72h-20.26V140h4.43v6.04h18.72v11.06h10.89v19.06h18.38v9.02h35.95l0.83,9.19h-27v14.13h53.25l1.76,19.4h-52.38l3.23,5.45h60.77
	l0.12,3.36h-61.74l3.23,3.45h12.11l0.85,9.33l-7,0.54c0,0,4.02,4.71,7.79,8.17c11.1,11.12,22.23,14.33,33.38,11.73
	c7.29-1.7,13.72-5.89,18.75-11.44c27.14-29.98,41.51-75.45,43.37-136.11C515.53,26.48,459.07,9.21,398.6,22.16z"/>
<rect x="182.25" y="67.75" class="st5" width="18.89" height="5.87"/>
<rect x="329.11" y="79.75" class="st6" width="31.78" height="5.84"/>
<rect x="303.78" y="56.6" class="st6" width="19.57" height="5.53"/>
<rect x="175.99" y="148.93" class="st7" width="34.37" height="2.77"/>
<rect x="289.48" y="175.56" class="st7" width="18.56" height="6.77"/>
<circle class="st7" cx="437.52" cy="52.73" r="12.89"/>
<circle class="st7" cx="472.37" cy="82.86" r="12.89"/>
<circle class="st7" cx="407.9" cy="88.86" r="12.89"/>
<circle class="st7" cx="442.21" cy="118.44" r="12.89"/>
<path class="st8" d="M256.38,44.18c-44.4,0-80.39,35.99-80.39,80.39c0,44.4,35.99,80.39,80.39,80.39c44.4,0,80.39-35.99,80.39-80.39
	C336.77,80.17,300.78,44.18,256.38,44.18z M256.38,192.53c-37.54,0-67.97-30.43-67.97-67.97s30.43-67.97,67.97-67.97
	s67.97,30.43,67.97,67.97S293.92,192.53,256.38,192.53z"/>
<path class="st7" d="M265.15,45.94c-44.4,0-80.39,35.99-80.39,80.39c0,44.4,35.99,80.39,80.39,80.39c44.4,0,80.39-35.99,80.39-80.39
	C345.54,81.93,309.54,45.94,265.15,45.94z M265.15,194.29c-37.54,0-67.97-30.43-67.97-67.97s30.43-67.97,67.97-67.97
	s67.97,30.43,67.97,67.97S302.68,194.29,265.15,194.29z"/>
<path d="M259.8,45.94c-44.4,0-80.39,35.99-80.39,80.39c0,44.4,35.99,80.39,80.39,80.39c44.4,0,80.39-35.99,80.39-80.39
	C340.19,81.93,304.19,45.94,259.8,45.94z M259.8,194.29c-37.54,0-67.97-30.43-67.97-67.97s30.43-67.97,67.97-67.97
	s67.97,30.43,67.97,67.97S297.33,194.29,259.8,194.29z"/>
<path class="st7" d="M395.87,105.28c-14.59,0-26.43,11.83-26.43,26.43c0,14.59,11.83,26.43,26.43,26.43
	c14.59,0,26.43-11.83,26.43-26.43C422.29,117.11,410.46,105.28,395.87,105.28z M395.87,151.75c-11.07,0-20.04-8.97-20.04-20.04
	c0-11.07,8.97-20.04,20.04-20.04s20.04,8.97,20.04,20.04C415.91,142.77,406.94,151.75,395.87,151.75z"/>
<circle class="st8" cx="395.87" cy="131.7" r="18.26"/>
<path class="st7" d="M70.42,44.18C55.83,44.18,44,56.01,44,70.6c0,14.59,11.83,26.43,26.43,26.43c14.59,0,26.43-11.83,26.43-26.43
	C96.85,56.01,85.02,44.18,70.42,44.18z M70.42,90.65c-11.07,0-20.04-8.97-20.04-20.04s8.97-20.04,20.04-20.04
	s20.04,8.97,20.04,20.04S81.49,90.65,70.42,90.65z"/>
<circle class="st8" cx="70.42" cy="70.6" r="18.26"/>
<rect x="219.96" y="141.36" class="st8" width="79.66" height="13.62"/>
<rect x="224.12" y="146.47" class="st7" width="79.66" height="13.62"/>
<rect x="222" y="143.32" width="79.66" height="13.62"/>
<g>
	<g>
		<g>
			
				<rect x="219.14" y="98.38" transform="matrix(0.7071 -0.7071 0.7071 0.7071 -4.5597 197.8886)" class="st8" width="34.9" height="12.13"/>
		</g>
		<g>
			
				<rect x="230.53" y="87" transform="matrix(0.7071 -0.7071 0.7071 0.7071 -4.5597 197.8886)" class="st8" width="12.13" height="34.9"/>
		</g>
	</g>
</g>
<g>
	<g>
		<g>
			
				<rect x="223.88" y="104.07" transform="matrix(0.7071 -0.7071 0.7071 0.7071 -7.1926 202.9047)" class="st7" width="34.9" height="12.13"/>
		</g>
		<g>
			
				<rect x="235.27" y="92.68" transform="matrix(0.7071 -0.7071 0.7071 0.7071 -7.1926 202.9047)" class="st7" width="12.13" height="34.9"/>
		</g>
	</g>
</g>
<g>
	
		<rect x="221.17" y="101.36" transform="matrix(0.7071 -0.7071 0.7071 0.7071 -6.0713 200.1975)" class="st9" width="34.9" height="12.13"/>
	
		<rect x="221.17" y="101.36" transform="matrix(0.7071 0.7071 -0.7071 0.7071 145.8541 -137.268)" class="st9" width="34.9" height="12.13"/>
</g>
<g>
	<g>
		<g>
			
				<rect x="266.35" y="98.38" transform="matrix(0.7071 -0.7071 0.7071 0.7071 9.2688 231.2735)" class="st8" width="34.9" height="12.13"/>
		</g>
		<g>
			
				<rect x="277.74" y="87" transform="matrix(0.7071 -0.7071 0.7071 0.7071 9.2688 231.2735)" class="st8" width="12.13" height="34.9"/>
		</g>
	</g>
</g>
<g>
	<g>
		<g>
			
				<rect x="271.09" y="104.07" transform="matrix(0.7071 -0.7071 0.7071 0.7071 6.6358 236.2896)" class="st7" width="34.9" height="12.13"/>
		</g>
		<g>
			
				<rect x="282.48" y="92.68" transform="matrix(0.7071 -0.7071 0.7071 0.7071 6.6358 236.2896)" class="st7" width="12.13" height="34.9"/>
		</g>
	</g>
</g>
<g>
	
		<rect x="268.39" y="101.36" transform="matrix(0.7071 -0.7071 0.7071 0.7071 7.7572 233.5824)" class="st9" width="34.9" height="12.13"/>
	
		<rect x="268.39" y="101.36" transform="matrix(0.7071 0.7071 -0.7071 0.7071 159.6825 -170.6529)" class="st9" width="34.9" height="12.13"/>
</g>
<g>
	<g>
		<path class="st8" d="M162.7,252.09c-0.34-0.54-0.81-0.96-1.43-1.26c-0.62-0.3-1.37-0.45-2.25-0.45c-1.65,0-2.93,0.54-3.83,1.61
			c-0.9,1.07-1.36,2.54-1.36,4.4c0,2.14,0.5,3.74,1.51,4.8c1.01,1.06,2.56,1.59,4.65,1.59c1.99,0,3.59-0.8,4.8-2.4h-6.86v-6.08
			h13.98v8.6c-1.19,2.04-2.83,3.79-4.92,5.25c-2.09,1.46-4.74,2.19-7.94,2.19c-2.84,0-5.31-0.59-7.42-1.76
			c-2.11-1.17-3.72-2.82-4.84-4.94s-1.68-4.53-1.68-7.24c0-2.71,0.56-5.13,1.68-7.24s2.73-3.76,4.82-4.94s4.54-1.76,7.36-1.76
			c3.59,0,6.51,0.87,8.77,2.6c2.26,1.73,3.59,4.08,4.01,7.05H162.7z"/>
		<path class="st8" d="M192.6,266h-9.14l-1.36,4.14h-9.02l10.03-27.42h9.92l9.99,27.42h-9.06L192.6,266z M190.51,259.53l-2.48-7.63
			l-2.48,7.63H190.51z"/>
		<path class="st8" d="M237.91,242.72v27.42h-8.56v-13.67l-4.22,13.67h-7.36l-4.22-13.67v13.67h-8.6v-27.42h10.54l6.04,16.46
			l5.89-16.46H237.91z"/>
		<path class="st8" d="M250.39,249.57v3.37h8.52v6.47h-8.52v3.87h9.68v6.86h-18.28v-27.42h18.28v6.86H250.39z"/>
		<path class="st8" d="M276.16,268.59c-2.16-1.21-3.87-2.89-5.13-5.04c-1.27-2.14-1.9-4.56-1.9-7.24c0-2.69,0.63-5.1,1.9-7.24
			c1.26-2.14,2.98-3.81,5.13-5.02c2.16-1.2,4.53-1.8,7.11-1.8s4.94,0.6,7.09,1.8c2.14,1.2,3.84,2.87,5.09,5.02
			c1.25,2.14,1.88,4.56,1.88,7.24c0,2.69-0.63,5.1-1.88,7.24c-1.25,2.14-2.96,3.82-5.11,5.04s-4.51,1.82-7.07,1.82
			C280.69,270.41,278.32,269.8,276.16,268.59z M287.22,260.75c0.93-1.1,1.39-2.58,1.39-4.43c0-1.88-0.46-3.38-1.39-4.47
			c-0.93-1.1-2.25-1.65-3.95-1.65c-1.73,0-3.06,0.55-3.99,1.65c-0.93,1.1-1.39,2.59-1.39,4.47c0,1.86,0.46,3.34,1.39,4.43
			c0.93,1.1,2.26,1.65,3.99,1.65C284.97,262.39,286.29,261.84,287.22,260.75z"/>
		<path class="st8" d="M328.04,242.72l-9.22,27.42h-11.12l-9.22-27.42h9.14l5.66,18.86l5.62-18.86H328.04z"/>
		<path class="st8" d="M338.58,249.57v3.37h8.52v6.47h-8.52v3.87h9.68v6.86h-18.28v-27.42h18.28v6.86H338.58z"/>
		<path class="st8" d="M365.3,270.14l-5.15-9.84h-0.04v9.84h-8.6v-27.42h12.78c2.22,0,4.12,0.39,5.69,1.18
			c1.58,0.79,2.76,1.86,3.54,3.21c0.79,1.36,1.18,2.89,1.18,4.59c0,1.83-0.51,3.46-1.53,4.88c-1.02,1.42-2.49,2.44-4.4,3.06
			l5.96,10.5H365.3z M360.11,254.57h3.41c0.83,0,1.45-0.19,1.86-0.56c0.41-0.37,0.62-0.96,0.62-1.76c0-0.72-0.21-1.29-0.64-1.71
			c-0.43-0.41-1.04-0.62-1.84-0.62h-3.41V254.57z"/>
	</g>
</g>
<g>
	<g>
		<path class="st7" d="M167.17,255.67c-0.34-0.54-0.81-0.96-1.43-1.26c-0.62-0.3-1.37-0.45-2.25-0.45c-1.65,0-2.93,0.54-3.83,1.61
			c-0.9,1.07-1.36,2.54-1.36,4.4c0,2.14,0.5,3.74,1.51,4.8c1.01,1.06,2.56,1.59,4.65,1.59c1.99,0,3.59-0.8,4.8-2.4h-6.86v-6.08
			h13.98v8.6c-1.19,2.04-2.83,3.79-4.92,5.25c-2.09,1.46-4.74,2.19-7.94,2.19c-2.84,0-5.31-0.59-7.42-1.76
			c-2.11-1.17-3.72-2.82-4.84-4.94s-1.68-4.53-1.68-7.24c0-2.71,0.56-5.13,1.68-7.24s2.73-3.76,4.82-4.94s4.54-1.76,7.36-1.76
			c3.59,0,6.51,0.87,8.77,2.6c2.26,1.73,3.59,4.08,4.01,7.05H167.17z"/>
		<path class="st7" d="M197.07,269.58h-9.14l-1.36,4.14h-9.02l10.03-27.42h9.92l9.99,27.42h-9.06L197.07,269.58z M194.98,263.11
			l-2.48-7.63l-2.48,7.63H194.98z"/>
		<path class="st7" d="M242.38,246.3v27.42h-8.56v-13.67l-4.22,13.67h-7.36l-4.22-13.67v13.67h-8.6V246.3h10.54l6.04,16.46
			l5.89-16.46H242.38z"/>
		<path class="st7" d="M254.85,253.16v3.37h8.52v6.47h-8.52v3.87h9.68v6.86h-18.28V246.3h18.28v6.86H254.85z"/>
		<path class="st7" d="M280.63,272.17c-2.16-1.21-3.87-2.89-5.13-5.04c-1.27-2.14-1.9-4.56-1.9-7.24s0.63-5.1,1.9-7.24
			c1.26-2.14,2.98-3.81,5.13-5.02c2.16-1.2,4.53-1.8,7.11-1.8s4.94,0.6,7.09,1.8c2.14,1.2,3.84,2.87,5.09,5.02
			c1.25,2.14,1.88,4.56,1.88,7.24s-0.63,5.1-1.88,7.24c-1.25,2.14-2.96,3.82-5.11,5.04s-4.51,1.82-7.07,1.82
			C285.16,273.99,282.79,273.39,280.63,272.17z M291.69,264.33c0.93-1.1,1.39-2.58,1.39-4.43c0-1.88-0.46-3.38-1.39-4.47
			c-0.93-1.1-2.25-1.65-3.95-1.65c-1.73,0-3.06,0.55-3.99,1.65c-0.93,1.1-1.39,2.59-1.39,4.47c0,1.86,0.46,3.34,1.39,4.43
			c0.93,1.1,2.26,1.65,3.99,1.65C289.44,265.98,290.76,265.43,291.69,264.33z"/>
		<path class="st7" d="M332.51,246.3l-9.22,27.42h-11.12l-9.22-27.42h9.14l5.66,18.86l5.62-18.86H332.51z"/>
		<path class="st7" d="M343.05,253.16v3.37h8.52v6.47h-8.52v3.87h9.68v6.86h-18.28V246.3h18.28v6.86H343.05z"/>
		<path class="st7" d="M369.77,273.72l-5.15-9.84h-0.04v9.84h-8.6V246.3h12.78c2.22,0,4.12,0.39,5.69,1.18
			c1.58,0.79,2.76,1.86,3.54,3.21c0.79,1.36,1.18,2.89,1.18,4.59c0,1.83-0.51,3.46-1.53,4.88c-1.02,1.42-2.49,2.44-4.4,3.06
			l5.96,10.5H369.77z M364.58,258.15h3.41c0.83,0,1.45-0.19,1.86-0.56c0.41-0.37,0.62-0.96,0.62-1.76c0-0.72-0.21-1.29-0.64-1.71
			c-0.43-0.41-1.04-0.62-1.84-0.62h-3.41V258.15z"/>
	</g>
</g>
<rect x="175.99" y="219.15" class="st6" width="39.12" height="10.98"/>
<rect x="225.57" y="209.7" class="st6" width="13.05" height="13.05"/>
<rect x="261.83" y="217.36" class="st6" width="9.96" height="5.39"/>
<rect x="308.04" y="214.55" class="st6" width="9.45" height="5.51"/>
<rect x="158.68" y="176.51" class="st6" width="6.77" height="6.77"/>
<rect x="169.4" y="154.98" class="st6" width="10.64" height="10.64"/>
<rect x="202.59" y="44.18" class="st6" width="8.17" height="8.17"/>
<rect x="126.51" y="206.72" class="st10" width="32.17" height="6.81"/>
<rect x="149.58" y="219.15" class="st10" width="5.49" height="5.49"/>
<rect x="191.83" y="186.21" class="st10" width="29.5" height="10.72"/>
<rect x="348.63" y="201.79" class="st10" width="42.38" height="12.77"/>
<rect x="321.32" y="176.51" class="st10" width="18.87" height="6.77"/>
<rect x="348.63" y="148.17" class="st10" width="9.7" height="9.7"/>
<circle class="st8" cx="437.52" cy="47.1" r="12.89"/>
<circle class="st8" cx="472.37" cy="77.22" r="12.89"/>
<circle class="st8" cx="407.9" cy="83.22" r="12.89"/>
<circle class="st8" cx="442.21" cy="112.81" r="12.89"/>
<circle class="st11" cx="431.45" cy="38.74" r="2.14"/>
<circle class="st11" cx="467.54" cy="69.79" r="2.14"/>
<circle class="st11" cx="401.75" cy="75.84" r="2.14"/>
<circle class="st11" cx="437.84" cy="106.9" r="2.14"/>
<rect x="143.85" y="173.56" class="st7" width="16.32" height="11.24"/>
<rect x="167.87" y="179.18" class="st7" width="8.12" height="8.12"/>
<rect x="134.46" y="197.73" class="st7" width="5.39" height="5.39"/>
<rect x="135.08" y="189.42" class="st7" width="32.79" height="4.31"/>
<rect x="237.14" y="216.23" class="st7" width="16.78" height="8.41"/>
<rect x="313.65" y="196.93" class="st7" width="10.7" height="10.7"/>
<rect x="381.07" y="218.05" class="st7" width="20.63" height="6.59"/>
<rect x="354.28" y="174.95" class="st7" width="7" height="7"/>
<rect x="399.39" y="189.57" class="st7" width="13.08" height="8.77"/>
<rect x="344.74" y="193.96" class="st7" width="3.89" height="3.89"/>
<rect x="245.53" y="165.62" class="st7" width="12.24" height="4.25"/>
<rect x="279.47" y="176.51" class="st7" width="3.38" height="3.38"/>
<rect x="302.87" y="128" class="st7" width="21.48" height="3.71"/>
<rect x="263.95" y="126.33" class="st7" width="7.67" height="6.75"/>
<rect x="253.15" y="81.66" class="st7" width="7.39" height="6.16"/>
<rect x="255" y="67.65" class="st7" width="2.77" height="2.77"/>
<rect x="283.81" y="70.42" class="st7" width="4.22" height="4.22"/>
<rect x="291.32" y="76.74" class="st8" width="2.23" height="2.23"/>
<rect x="270.24" y="76.12" class="st8" width="3.63" height="3.63"/>
<rect x="293.18" y="24.51" class="st6" width="6.21" height="6.21"/>
<rect x="348.67" y="53.11" class="st6" width="4.94" height="3.57"/>
<rect x="348.67" y="51.58" class="st6" width="28.09" height="1.53"/>
<rect x="337.26" y="93.62" class="st6" width="39.49" height="2.21"/>
<rect x="251.65" y="33.19" class="st6" width="4.6" height="4.6"/>
<rect x="202.12" y="44.43" class="st6" width="8.68" height="8.68"/>
<rect x="212.5" y="41.02" class="st6" width="11.4" height="3.4"/>
<rect x="154.8" y="214.3" class="st6" width="4.09" height="2.72"/>
<rect x="149.01" y="218.9" class="st4" width="5.79" height="5.79"/>
<rect x="134.03" y="198.64" class="st4" width="5.28" height="5.28"/>
<rect x="136.3" y="29.7" class="st10" width="44.94" height="3.32"/>
<rect x="190.93" y="29.7" class="st10" width="22.98" height="7.91"/>
<rect x="232.81" y="31.36" class="st10" width="7.72" height="7.72"/>
<rect x="228.21" y="37.62" class="st10" width="5.87" height="4.34"/>
<rect x="165.66" y="67.75" class="st10" width="22.21" height="5.62"/>
<rect x="173.83" y="72.34" class="st10" width="28.6" height="6.38"/>
<rect x="189.4" y="59.07" class="st12" width="7.4" height="8.94"/>
<rect x="182.25" y="41.96" class="st13" width="12.77" height="14.3"/>
<rect x="316.2" y="30.72" class="st14" width="16.85" height="5.87"/>
<rect x="306.5" y="51.92" class="st14" width="19.66" height="6.89"/>
<rect x="333.06" y="60.09" class="st14" width="6.89" height="8.68"/>
<rect x="336.5" y="55.36" class="st4" width="3.45" height="3.45"/>
<rect x="361.4" y="22.81" class="st14" width="3.83" height="3.83"/>
<rect x="376.99" y="30.72" class="st14" width="3.51" height="3.51"/>
<rect x="353.99" y="55.36" class="st3" width="4.72" height="4.72"/>
<rect x="375.44" y="29.45" class="st15" width="4.21" height="4.21"/>
<rect x="336.5" y="38.98" class="st4" width="17.49" height="3.74"/>
<rect x="318.16" y="42.72" class="st4" width="3.06" height="3.06"/>
<rect x="336.5" y="55.36" class="st4" width="3.45" height="3.45"/>
<rect x="267.79" y="36.6" class="st4" width="26.98" height="4.43"/>
<rect x="275.87" y="22.81" class="st4" width="3.67" height="3.67"/>
<rect x="220.03" y="80" class="st4" width="27.32" height="3.83"/>
<rect x="199.61" y="105.28" class="st4" width="22.21" height="3.06"/>
<rect x="189.9" y="132.85" class="st4" width="22.21" height="8.43"/>
<rect x="198.34" y="156.6" class="st4" width="9.95" height="2.55"/>
<rect x="235.86" y="185.45" class="st3" width="23.49" height="5.11"/>
<rect x="267.78" y="183.92" class="st3" width="16.6" height="4.09"/>
<rect x="229.99" y="179.96" class="st4" width="9.83" height="10.6"/>
<rect x="245.95" y="173.96" class="st3" width="15.57" height="6"/>
<rect x="240.46" y="168.34" class="st16" width="12.51" height="5.62"/>
<rect x="201.01" y="121.53" class="st17" width="12.89" height="5.28"/>
<rect x="208.29" y="92.43" class="st17" width="13.53" height="5.11"/>
<path class="st2" d="M93.31,110.01c-5.44-0.92-11.05,2.43-13.12,8.17c-2.07,5.74,0.11,11.9,4.89,14.66L85.02,133l49.41,17.81
	c5.97,2.15,12.67-1.29,14.98-7.69c2.31-6.4-0.66-13.33-6.63-15.48l-49.41-17.81L93.31,110.01z"/>
<path class="st2" d="M135.34,108.21c0.95-5.43-2.23-10.98-7.77-12.97c-5.54-2-11.53,0.25-14.26,5.03l-0.17-0.06l-17.81,49.41
	c-2.15,5.97,1.11,12.61,7.29,14.83c6.17,2.23,12.92-0.81,15.07-6.77l17.81-49.41L135.34,108.21z"/>
<g>
	<path class="st1" d="M131.77,110.06c0.83-4.56-1.69-9.17-6.16-10.78c-4.47-1.61-9.35,0.33-11.62,4.37l-0.14-0.05l-14.99,41.58
		c-1.81,5.02,0.76,10.55,5.75,12.34c4.98,1.8,10.49-0.82,12.3-5.84l14.99-41.58L131.77,110.06z"/>
	<circle class="st4" cx="115.11" cy="129.17" r="7.45"/>
	<path class="st4" d="M103.43,145.9l8.46,2.9c0.53,0.18,0.58,0.92,0.07,1.17l-5.68,2.78c-0.31,0.15-0.69,0.02-0.85-0.29l-2.78-5.68
		C102.41,146.27,102.9,145.71,103.43,145.9z"/>
	<path class="st4" d="M126.58,111.15l-8.46-2.9c-0.53-0.18-0.58-0.92-0.07-1.17l5.68-2.78c0.31-0.15,0.69-0.02,0.85,0.29l2.78,5.68
		C127.6,110.78,127.11,111.34,126.58,111.15z"/>
</g>
<g>
	<path class="st1" d="M97.34,111.74c-4.56-0.83-9.17,1.69-10.78,6.16c-1.61,4.47,0.33,9.35,4.37,11.62l-0.05,0.14l41.58,14.99
		c5.02,1.81,10.55-0.76,12.34-5.75c1.8-4.98-0.82-10.49-5.84-12.3L97.39,111.6L97.34,111.74z"/>
	<circle class="st4" cx="115.11" cy="127.89" r="7.45"/>
	<path class="st4" d="M133.18,140.08l2.9-8.46c0.18-0.53,0.92-0.58,1.17-0.07l2.78,5.68c0.15,0.31,0.02,0.69-0.29,0.85l-5.68,2.78
		C133.55,141.1,133,140.61,133.18,140.08z"/>
	<path class="st4" d="M98.44,116.93l-2.9,8.46c-0.18,0.53-0.92,0.58-1.17,0.07l-2.78-5.68c-0.15-0.31-0.02-0.69,0.29-0.85l5.68-2.78
		C98.07,115.91,98.62,116.4,98.44,116.93z"/>
</g>
<path class="st4" d="M134.04,22.68"/>
<g>
	<path class="st8" d="M87.81,33.77C55.14,22.43,23.42,45.96,14.79,77.6c-16.12,53.45,1.29,109.87,23.6,159
		c0.11,0.25,0,0.55-0.25,0.66c-0.25,0.11-0.54,0.01-0.66-0.24c-9.44-19.92-17.79-40.45-23.68-61.78
		C2.77,136.74-0.77,79.14,27.1,46.88c15.03-17.27,40.36-25.73,62.45-17.93C92.73,30.19,91.04,34.86,87.81,33.77L87.81,33.77z"/>
</g>
<g>
	<path class="st1" d="M411.52,28.34c39.46-15.35,80.32,10.64,91.29,49.81c9.12,31.17,6.89,64.57-1.32,95.66
		c-5.94,22.63-14.69,44.37-24.66,65.42c-0.12,0.25-0.42,0.36-0.67,0.24c-0.25-0.12-0.35-0.41-0.24-0.66
		c9.62-21.17,17.99-42.97,23.53-65.51c7.59-30.75,9.34-63.59-0.11-94.11c-7.16-24.36-27.59-45.16-52.99-49.54
		c-11.04-2.01-22.56-0.77-32.94,3.46C410.26,34.31,408.35,29.68,411.52,28.34L411.52,28.34z"/>
</g>
<g>
	<path class="st4" d="M433.7,119.47c6.2,4.14,13.8,3.98,18.46-2.4c0.32-0.48,1.1-0.06,0.88,0.47c-2.05,5.78-9.62,8.79-15.24,6.17
		c-1.86-0.79-3.48-2.01-4.76-3.47c-0.18-0.21-0.16-0.53,0.05-0.71C433.27,119.37,433.52,119.35,433.7,119.47L433.7,119.47z"/>
</g>
<g>
	<path class="st4" d="M463.55,83.67c6.2,4.14,13.8,3.98,18.46-2.4c0.32-0.48,1.1-0.06,0.88,0.47c-2.05,5.78-9.62,8.79-15.24,6.17
		c-1.86-0.79-3.48-2.01-4.76-3.47c-0.18-0.21-0.16-0.53,0.05-0.71C463.13,83.57,463.37,83.56,463.55,83.67L463.55,83.67z"/>
</g>
<g>
	<path class="st4" d="M399.46,89.6c6.2,4.14,13.8,3.98,18.46-2.4c0.32-0.48,1.1-0.06,0.88,0.47c-2.05,5.78-9.62,8.79-15.24,6.17
		c-1.86-0.79-3.48-2.01-4.76-3.47c-0.18-0.21-0.16-0.53,0.05-0.71C399.04,89.5,399.28,89.48,399.46,89.6L399.46,89.6z"/>
</g>
<g>
	<path class="st4" d="M429.31,53.8c6.2,4.14,13.79,3.98,18.46-2.4c0.32-0.48,1.1-0.06,0.88,0.47c-2.05,5.78-9.62,8.79-15.24,6.17
		c-1.86-0.79-3.48-2.01-4.76-3.47c-0.18-0.21-0.16-0.53,0.05-0.71C428.89,53.7,429.13,53.69,429.31,53.8L429.31,53.8z"/>
</g>
<g>
	<path class="st10" d="M164.7,253.79c-0.34-0.54-0.81-0.96-1.43-1.26c-0.62-0.3-1.37-0.45-2.25-0.45c-1.65,0-2.93,0.54-3.83,1.61
		c-0.9,1.07-1.36,2.54-1.36,4.4c0,2.14,0.5,3.74,1.51,4.8c1.01,1.06,2.56,1.59,4.65,1.59c1.99,0,3.59-0.8,4.8-2.4h-6.86v-6.08h13.98
		v8.6c-1.19,2.04-2.83,3.79-4.92,5.25c-2.09,1.46-4.74,2.19-7.94,2.19c-2.84,0-5.31-0.59-7.42-1.76c-2.11-1.18-3.72-2.82-4.84-4.94
		s-1.68-4.53-1.68-7.24c0-2.71,0.56-5.13,1.68-7.24s2.73-3.76,4.82-4.94c2.09-1.17,4.54-1.76,7.36-1.76c3.59,0,6.51,0.87,8.77,2.6
		c2.26,1.73,3.59,4.08,4.01,7.05H164.7z"/>
	<path class="st10" d="M194.6,267.69h-9.14l-1.36,4.14h-9.02l10.03-27.42h9.92l9.99,27.42h-9.06L194.6,267.69z M192.51,261.22
		l-2.48-7.63l-2.48,7.63H192.51z"/>
	<path class="st10" d="M239.92,244.41v27.42h-8.56v-13.67l-4.22,13.67h-7.36l-4.22-13.67v13.67h-8.6v-27.42h10.54l6.04,16.46
		l5.89-16.46H239.92z"/>
	<path class="st10" d="M252.39,251.27v3.37h8.52v6.47h-8.52v3.87h9.68v6.86h-18.28v-27.42h18.28v6.86H252.39z"/>
	<path class="st10" d="M278.16,270.29c-2.16-1.21-3.87-2.89-5.13-5.04c-1.27-2.14-1.9-4.56-1.9-7.24c0-2.69,0.63-5.1,1.9-7.24
		c1.26-2.14,2.98-3.81,5.13-5.02s4.53-1.8,7.11-1.8s4.94,0.6,7.09,1.8s3.84,2.87,5.09,5.02c1.25,2.14,1.88,4.56,1.88,7.24
		c0,2.69-0.63,5.1-1.88,7.24c-1.25,2.14-2.96,3.82-5.11,5.04c-2.16,1.21-4.51,1.82-7.07,1.82
		C282.69,272.11,280.32,271.5,278.16,270.29z M289.22,262.44c0.93-1.1,1.39-2.58,1.39-4.44c0-1.88-0.46-3.38-1.39-4.47
		c-0.93-1.1-2.25-1.65-3.95-1.65c-1.73,0-3.06,0.55-3.99,1.65s-1.39,2.59-1.39,4.47c0,1.86,0.46,3.34,1.39,4.44s2.26,1.65,3.99,1.65
		C286.97,264.09,288.29,263.54,289.22,262.44z"/>
	<path class="st10" d="M330.04,244.41l-9.22,27.42h-11.12l-9.22-27.42h9.14l5.66,18.86l5.62-18.86H330.04z"/>
	<path class="st10" d="M340.58,251.27v3.37h8.52v6.47h-8.52v3.87h9.68v6.86h-18.28v-27.42h18.28v6.86H340.58z"/>
	<path class="st10" d="M367.3,271.84l-5.15-9.84h-0.04v9.84h-8.6v-27.42h12.78c2.22,0,4.12,0.39,5.69,1.18
		c1.58,0.79,2.76,1.86,3.54,3.21c0.79,1.36,1.18,2.89,1.18,4.59c0,1.83-0.51,3.46-1.53,4.88c-1.02,1.42-2.49,2.44-4.4,3.06
		l5.96,10.5H367.3z M362.11,256.26h3.41c0.83,0,1.45-0.19,1.86-0.56c0.41-0.37,0.62-0.96,0.62-1.76c0-0.72-0.21-1.29-0.64-1.71
		c-0.43-0.41-1.04-0.62-1.84-0.62h-3.41V256.26z"/>
</g>
</svg>
